<svg width="532" height="580" viewBox="0 0 532 580" fill="none" xmlns="http://www.w3.org/2000/svg">
<path d="M241.818 145C153.482 275.452 96.7273 357.038 96.7273 436.353C96.7273 515.717 161.631 580 241.818 580C322.005 580 386.909 515.717 386.909 436.353C386.909 357.038 330.154 275.452 241.818 145ZM241.31 237.776C249.822 250.923 259.955 273.808 259.955 297.951C259.955 368.783 187.409 380.407 187.409 337.27C187.409 307.69 223.464 264.021 241.31 237.776ZM183.298 145.242C168.475 105.632 137.933 60.8517 96.7273 0C37.8204 86.9758 0 141.375 0 194.227C0 245.678 40.9882 287.293 92.4229 289.565C115.371 246.669 146.469 199.689 183.298 145.242ZM60.4545 128.204C60.4545 108.484 84.4913 79.3633 96.3887 61.8667C102.071 70.615 108.818 85.8883 108.818 101.983C108.818 149.205 60.4545 156.938 60.4545 128.204ZM435.273 72.5C394.019 133.424 363.453 178.253 348.629 217.887C382.847 271.102 408.262 317.018 422.481 361.243C483.515 369.242 532 322.359 532 266.727C532 213.875 494.18 159.476 435.273 72.5ZM399 200.704C399 180.984 423.037 151.863 434.934 134.367C440.617 143.115 447.364 158.388 447.364 174.483C447.364 221.705 399 229.438 399 200.704Z" fill="white"/>
</svg>
